<?xml version="1.0" encoding="utf-8"?>
<!-- Generator: Adobe Illustrator 23.0.3, SVG Export Plug-In . SVG Version: 6.00 Build 0)  -->
<svg version="1.1" xmlns="http://www.w3.org/2000/svg" xmlns:xlink="http://www.w3.org/1999/xlink" x="0px" y="0px"
	 viewBox="0 0 500 500" style="enable-background:new 0 0 500 500;" xml:space="preserve">
<style type="text/css">
	.st0{fill:none;}
	.st1{fill:#191919;}
</style>
<g id="Layer_2">
</g>
<g id="Layer_1">
	<g>
		<path class="st0" d="M252.39,261.09c-9.06-14.32-18.11-28.64-27.17-42.95c-0.17-0.28-0.36-0.54-0.63-0.95
			c-3.27,4.95-6.46,9.79-9.65,14.62c-9.49,14.4-18.98,28.79-28.47,43.19c-9.93,15.06-19.85,30.12-29.77,45.18
			c-7.48,11.36-14.97,22.71-22.45,34.07c7.99-1.69,16.04-3.22,24.16-4.56c21-32.48,41.93-64.84,62.9-97.27
			c1.52,2.41,2.97,4.7,4.41,6.99c2.3,3.64,4.59,7.28,6.91,10.9c0.33,0.52,0.33,0.89-0.02,1.41c-7.34,11.09-14.67,22.2-22,33.3
			c-8.47,12.85-16.94,25.7-25.41,38.55c-0.56,0.86-1.13,1.71-1.7,2.57c7.64-0.91,15.32-1.67,23.04-2.27
			c12.22-18.9,24.44-37.79,36.69-56.74c1.48,2.32,2.89,4.55,4.31,6.78c2.3,3.64,4.58,7.28,6.9,10.9c0.39,0.61,0.42,1.04,0,1.67
			c-7.94,12.01-15.86,24.03-23.79,36.05c6.41-0.22,12.85-0.34,19.32-0.34c1.23,0,2.45,0.02,3.67,0.02
			c4.1-6.34,8.2-12.69,12.32-19.06c1.3,2.06,2.53,4,3.76,5.94c2.51,3.97,5.01,7.94,7.54,11.9c0.33,0.51,0.36,0.87,0.01,1.4
			c-0.1,0.15-0.2,0.3-0.3,0.46c9.53,0.46,19,1.15,28.4,2.08c-5.76-9.12-11.53-18.25-17.29-27.37
			C276.21,298.73,264.3,279.91,252.39,261.09z"/>
		<path class="st1" d="M156.7,320.18c9.92-15.06,19.85-30.12,29.77-45.18c9.49-14.4,18.98-28.79,28.47-43.19
			c3.19-4.83,6.38-9.67,9.65-14.62c0.27,0.41,0.46,0.67,0.63,0.95c9.06,14.32,18.11,28.64,27.17,42.95
			c11.91,18.82,23.81,37.64,35.72,56.46c5.77,9.12,11.53,18.24,17.29,27.37c8.62,0.85,17.19,1.9,25.69,3.15
			c-35.29-54.78-70.37-109.58-105.85-164.14l-1.98-1.3c0,0-0.01-0.01-0.01-0.01C185.1,241.61,147,300.54,108.84,359.55
			c1.07,0.1-0.11,0.13,4.87-0.79c0.75-0.14,1.5-0.24,2.25-0.32c6.06-1.5,12.16-2.89,18.3-4.19
			C141.74,342.89,149.22,331.53,156.7,320.18z"/>
		<path class="st1" d="M390.2,359.63c0.26,0,0.53,0,0.97,0c-0.22-0.37-0.34-0.56-0.46-0.75c-13.99-21.7-27.98-43.4-41.97-65.09
			c-16.18-25.09-32.38-50.18-48.56-75.27c-15.29-23.7-30.56-47.41-45.87-71.1c-1.55-2.41-2.84-5.02-5.04-7.04
			c-0.13,0.2-0.24,0.36-0.34,0.52c-3.99,6.94-7.98,13.89-12,20.82c-0.38,0.66-0.41,1.12,0.02,1.77c1.97,3.02,3.88,6.08,5.82,9.13
			c13.35,20.98,26.69,41.95,40.04,62.93c14.09,22.15,28.19,44.3,42.27,66.46c10.69,16.82,21.37,33.65,32.04,50.48
			c10.66,2.08,21.22,4.46,31.66,7.14C389.25,359.63,389.72,359.63,390.2,359.63z"/>
		<path class="st1" d="M210.63,305.01c7.32-11.11,14.65-22.21,22-33.3c0.35-0.52,0.35-0.89,0.02-1.41
			c-2.32-3.62-4.61-7.26-6.91-10.9c-1.45-2.29-2.89-4.57-4.41-6.99c-20.97,32.43-41.9,64.79-62.9,97.27
			c8.31-1.38,16.68-2.56,25.11-3.56c0.56-0.86,1.13-1.71,1.7-2.57C193.69,330.71,202.15,317.86,210.63,305.01z"/>
		<path class="st1" d="M254.46,304.8c-2.32-3.62-4.6-7.27-6.9-10.9c-1.41-2.23-2.83-4.46-4.31-6.78
			c-12.25,18.95-24.47,37.84-36.69,56.74c7.99-0.62,16.03-1.06,24.11-1.33c7.92-12.02,15.85-24.04,23.79-36.05
			C254.88,305.85,254.86,305.42,254.46,304.8z"/>
		<path class="st1" d="M277.29,340.98c-2.53-3.95-5.03-7.93-7.54-11.9c-1.23-1.94-2.46-3.88-3.76-5.94
			c-4.12,6.37-8.22,12.72-12.32,19.06c7.82,0.05,15.6,0.26,23.33,0.63c0.1-0.15,0.2-0.3,0.3-0.46
			C277.66,341.85,277.62,341.5,277.29,340.98z"/>
	</g>
</g>
</svg>
